<svg width="38" height="33" viewBox="0 0 38 33" fill="none" xmlns="http://www.w3.org/2000/svg">
<path d="M5 24.25V8.5C5 7.57174 5.36875 6.6815 6.02513 6.02513C6.6815 5.36875 7.57174 5 8.5 5H15.7975C16.2593 4.99964 16.7167 5.09068 17.1432 5.26789C17.5697 5.44509 17.9569 5.70496 18.2825 6.0325L21.4675 9.2175C21.7931 9.54505 22.1803 9.80491 22.6068 9.98212C23.0333 10.1593 23.4907 10.2504 23.9525 10.25H29.5C30.4283 10.25 31.3185 10.6188 31.9749 11.2751C32.6313 11.9315 33 12.8217 33 13.75V24.25C33 25.1783 32.6313 26.0685 31.9749 26.7249C31.3185 27.3813 30.4283 27.75 29.5 27.75H8.5C7.57174 27.75 6.6815 27.3813 6.02513 26.7249C5.36875 26.0685 5 25.1783 5 24.25Z" fill="#F6BD00"/>
</svg>
