<svg width="30" height="30" viewBox="0 0 30 30" fill="none" xmlns="http://www.w3.org/2000/svg">
<path d="M15 12.2625C17.0711 12.2625 18.75 10.5835 18.75 8.51245C18.75 6.44138 17.0711 4.76245 15 4.76245C12.9289 4.76245 11.25 6.44138 11.25 8.51245C11.25 10.5835 12.9289 12.2625 15 12.2625Z" fill="white"/>
<path d="M6.01248 25.2374C5.96158 25.2358 5.9115 25.2242 5.8651 25.2032C5.81871 25.1822 5.7769 25.1523 5.74207 25.1151C5.70725 25.078 5.68008 25.0343 5.66213 24.9867C5.64419 24.939 5.63581 24.8883 5.63748 24.8374C5.63748 22.351 6.6252 19.9664 8.38335 18.2083C10.1415 16.4501 12.5261 15.4624 15.0125 15.4624C17.4989 15.4624 19.8834 16.4501 21.6416 18.2083C23.3998 19.9664 24.3875 22.351 24.3875 24.8374C24.3891 24.8883 24.3808 24.939 24.3628 24.9867C24.3449 25.0343 24.3177 25.078 24.2829 25.1151C24.2481 25.1523 24.2062 25.1822 24.1598 25.2032C24.1135 25.2242 24.0634 25.2358 24.0125 25.2374H6.01248Z" fill="white"/>
</svg>
