<svg width="28" height="27" viewBox="0 0 28 27" fill="none" xmlns="http://www.w3.org/2000/svg">
<g clip-path="url(#clip0_1047_118)">
<path d="M13.6457 26.7466C21.182 26.7466 27.2914 20.7592 27.2914 13.3733C27.2914 5.98744 21.182 0 13.6457 0C6.10939 0 0 5.98744 0 13.3733C0 20.7592 6.10939 26.7466 13.6457 26.7466Z" fill="#F0F0F0"/>
<path d="M13.6458 -0.000366211C7.77866 -0.000366211 2.77692 3.62882 0.848877 8.72139H26.4428C24.5147 3.62882 19.513 -0.000366211 13.6458 -0.000366211Z" fill="#D80027"/>
<path d="M13.6458 26.747C19.513 26.747 24.5147 23.1178 26.4428 18.0253H0.848877C2.77692 23.1178 7.77866 26.747 13.6458 26.747Z" fill="black"/>
<path d="M18.3919 11.9196H14.8321C14.8321 11.2774 14.3008 10.7567 13.6455 10.7567C12.9902 10.7567 12.4589 11.2774 12.4589 11.9196H8.89917C8.89917 12.5619 9.47 13.0825 10.1253 13.0825H10.0858C10.0858 13.7248 10.617 14.2454 11.2723 14.2454C11.2723 14.8877 11.8036 15.4083 12.4589 15.4083H14.8321C15.4875 15.4083 16.0187 14.8877 16.0187 14.2454C16.6741 14.2454 17.2053 13.7248 17.2053 13.0825H17.1658C17.8211 13.0825 18.3919 12.5619 18.3919 11.9196Z" fill="#FF9811"/>
</g>
<defs>
<clipPath id="clip0_1047_118">
<rect width="27.2914" height="26.7466" fill="white"/>
</clipPath>
</defs>
</svg>
