<svg width="31" height="31" viewBox="0 0 31 31" fill="none" xmlns="http://www.w3.org/2000/svg">
<path d="M15.1317 17.0233C16.1764 17.0233 17.0232 16.1765 17.0232 15.1318C17.0232 14.0872 16.1764 13.2404 15.1317 13.2404C14.0871 13.2404 13.2402 14.0872 13.2402 15.1318C13.2402 16.1765 14.0871 17.0233 15.1317 17.0233Z" fill="white"/>
<path d="M19.2804 22.8491L17.6537 21.1594L17.5655 21.0711L15.964 19.4696C15.7099 19.5142 15.4527 19.5395 15.1948 19.5453C14.6099 19.5537 14.0292 19.4457 13.4865 19.2276C12.9437 19.0096 12.4497 18.6858 12.0332 18.2751C11.6166 17.8645 11.2859 17.3751 11.0602 16.8355C10.8344 16.2959 10.7182 15.7168 10.7183 15.1318C10.7241 14.8739 10.7494 14.6168 10.7939 14.3626L8.27197 11.8407L6.30483 9.92395C4.88158 11.265 3.66231 12.8071 2.68579 14.5013C2.57511 14.693 2.51685 14.9105 2.51685 15.1318C2.51685 15.3532 2.57511 15.5706 2.68579 15.7623C3.48021 17.1368 7.72975 23.9588 15.157 23.9588H15.4722C16.8688 23.9173 18.2474 23.6314 19.5452 23.1139L19.2804 22.8491Z" fill="white"/>
<path d="M10.8318 7.26329L14.3625 10.7941C14.6167 10.7495 14.8738 10.7243 15.1317 10.7184C16.3022 10.7184 17.4248 11.1834 18.2525 12.0111C19.0802 12.8388 19.5452 13.9613 19.5452 15.1319C19.5393 15.3898 19.514 15.6469 19.4695 15.9011L22.849 19.2805L23.9082 20.3398C25.3493 19.0023 26.5857 17.4599 27.5777 15.7624C27.6884 15.5707 27.7466 15.3532 27.7466 15.1319C27.7466 14.9105 27.6884 14.6931 27.5777 14.5014C26.7707 13.1017 22.332 6.07796 14.7913 6.30494C13.3947 6.34637 12.0161 6.63232 10.7183 7.1498L10.8318 7.26329Z" fill="white"/>
<path d="M26.1149 24.3244L24.4756 22.6977L21.9536 20.1757L9.94899 8.1585L8.09533 6.30485L5.93904 4.14856C5.82147 4.03098 5.68189 3.93772 5.52827 3.87409C5.37465 3.81046 5.21001 3.77771 5.04374 3.77771C4.87746 3.77771 4.71282 3.81046 4.5592 3.87409C4.40559 3.93772 4.26601 4.03098 4.14843 4.14856C3.91099 4.38601 3.77759 4.70806 3.77759 5.04386C3.77759 5.37966 3.91099 5.70171 4.14843 5.93916L6.97305 8.82683L9.17978 10.9705L18.3976 20.1757L18.4859 20.264L20.1756 21.9537L20.9196 22.6977L24.3243 26.115C24.4415 26.2332 24.581 26.327 24.7346 26.391C24.8883 26.455 25.0531 26.488 25.2196 26.488C25.386 26.488 25.5509 26.455 25.7045 26.391C25.8582 26.327 25.9976 26.2332 26.1149 26.115C26.2331 25.9978 26.3269 25.8583 26.3909 25.7046C26.4549 25.551 26.4879 25.3862 26.4879 25.2197C26.4879 25.0532 26.4549 24.8884 26.3909 24.7347C26.3269 24.5811 26.2331 24.4416 26.1149 24.3244Z" fill="white"/>
</svg>
