<svg width="38" height="37" viewBox="0 0 38 37" fill="none" xmlns="http://www.w3.org/2000/svg">
<path d="M32.8351 6.89553V29.8809H4.69082V6.89553H32.8351ZM32.8351 4.59698H4.69082C4.06879 4.59698 3.47224 4.83915 3.0324 5.27021C2.59256 5.70127 2.34546 6.28591 2.34546 6.89553V29.8809C2.34546 30.4905 2.59256 31.0752 3.0324 31.5062C3.47224 31.9373 4.06879 32.1795 4.69082 32.1795H32.8351C33.4571 32.1795 34.0537 31.9373 34.4935 31.5062C34.9334 31.0752 35.1805 30.4905 35.1805 29.8809V6.89553C35.1805 6.28591 34.9334 5.70127 34.4935 5.27021C34.0537 4.83915 33.4571 4.59698 32.8351 4.59698Z" fill="white"/>
<path d="M7.03613 11.4927H15.2449V13.7912H7.03613V11.4927Z" fill="white"/>
<path d="M7.03613 16.0898H11.7268V18.3883H7.03613V16.0898Z" fill="white"/>
<path d="M26.9716 20.6869H19.9355C19.0025 20.6869 18.1076 21.0501 17.4479 21.6967C16.7881 22.3433 16.4175 23.2203 16.4175 24.1347V26.4332H18.7628V24.1347C18.7628 23.8299 18.8864 23.5376 19.1063 23.322C19.3262 23.1065 19.6245 22.9854 19.9355 22.9854H26.9716C27.2826 22.9854 27.5809 23.1065 27.8008 23.322C28.0207 23.5376 28.1443 23.8299 28.1443 24.1347V26.4332H30.4896V24.1347C30.4896 23.2203 30.119 22.3433 29.4592 21.6967C28.7995 21.0501 27.9046 20.6869 26.9716 20.6869Z" fill="white"/>
<path d="M23.4537 19.5376C24.3814 19.5376 25.2883 19.268 26.0597 18.7629C26.8311 18.2577 27.4323 17.5398 27.7873 16.6998C28.1423 15.8597 28.2352 14.9354 28.0542 14.0437C27.8732 13.1519 27.4265 12.3328 26.7705 11.6899C26.1145 11.047 25.2787 10.6092 24.3688 10.4318C23.4589 10.2544 22.5157 10.3454 21.6586 10.6934C20.8015 11.0413 20.0689 11.6305 19.5535 12.3865C19.038 13.1425 18.7629 14.0313 18.7629 14.9405C18.7629 16.1597 19.2571 17.329 20.1368 18.1912C21.0165 19.0533 22.2096 19.5376 23.4537 19.5376ZM23.4537 12.642C23.9175 12.642 24.371 12.7768 24.7567 13.0294C25.1424 13.2819 25.443 13.6409 25.6205 14.0609C25.798 14.4809 25.8444 14.9431 25.7539 15.389C25.6634 15.8348 25.4401 16.2444 25.1121 16.5658C24.7841 16.8873 24.3662 17.1062 23.9112 17.1949C23.4563 17.2836 22.9847 17.2381 22.5561 17.0641C22.1276 16.8901 21.7613 16.5955 21.5036 16.2175C21.2458 15.8395 21.1083 15.3951 21.1083 14.9405C21.1083 14.3309 21.3554 13.7463 21.7952 13.3152C22.2351 12.8842 22.8316 12.642 23.4537 12.642Z" fill="white"/>
</svg>
