<svg width="28" height="27" viewBox="0 0 28 27" fill="none" xmlns="http://www.w3.org/2000/svg">
<g clip-path="url(#clip0_1047_117)">
<path d="M13.6457 26.7466C21.182 26.7466 27.2914 20.7592 27.2914 13.3733C27.2914 5.98744 21.182 0 13.6457 0C6.10939 0 0 5.98744 0 13.3733C0 20.7592 6.10939 26.7466 13.6457 26.7466Z" fill="#F0F0F0"/>
<path d="M3.11914 4.8624H24.1723C23.3947 3.93959 22.4928 3.12125 21.4924 2.43091H5.79908C4.79863 3.12115 3.89679 3.93953 3.11914 4.8624Z" fill="#F0F0F0"/>
<path d="M0 13.3739C0 13.7838 0.0198822 14.1891 0.056715 14.5897H27.2347C27.2715 14.1891 27.2914 13.7838 27.2914 13.3739C27.2914 12.964 27.2715 12.5587 27.2347 12.1582H0.056715C0.0198822 12.5587 0 12.964 0 13.3739Z" fill="#F0F0F0"/>
<path d="M1.48834 19.4522H25.8037C26.2055 18.6819 26.5332 17.8684 26.7779 17.0208H0.51416C0.75877 17.8684 1.08659 18.6819 1.48834 19.4522Z" fill="#F0F0F0"/>
<path d="M5.79908 24.315H21.4923C22.4928 23.6247 23.3947 22.8064 24.1723 21.8835H3.11914C3.89679 22.8063 4.79863 23.6247 5.79908 24.315Z" fill="#F0F0F0"/>
<path d="M0.51416 9.72665H26.778C26.5333 8.87891 26.2056 8.06544 25.8038 7.29517H1.48839C1.08664 8.06544 0.758823 8.87891 0.51416 9.72665Z" fill="#F0F0F0"/>
<path d="M6.52539 2.43161H21.4915C19.272 0.900052 16.5658 0.00012207 13.6449 0.00012207C11.865 0.00012207 8.74495 0.900052 6.52539 2.43161Z" fill="#D80027"/>
<path d="M13.0522 7.2944H25.8032C25.3494 6.42446 24.8014 5.60957 24.1721 4.86292H13.0522V7.2944Z" fill="#D80027"/>
<path d="M13.0522 12.1569H27.2345C27.1577 11.3221 27.0035 10.509 26.7774 9.72546H13.0522V12.1569Z" fill="#D80027"/>
<path d="M0.513284 17.0217H26.777C27.0031 16.2382 27.1574 15.4251 27.2341 14.5902H0.0561523C0.132909 15.4251 0.28717 16.2382 0.513284 17.0217Z" fill="#D80027"/>
<path d="M3.11864 21.8842H24.1718C24.8011 21.1375 25.3491 20.3226 25.8029 19.4528H1.48755C1.94132 20.3227 2.48939 21.1376 3.11864 21.8842Z" fill="#D80027"/>
<path d="M13.6448 26.7472C16.5656 26.7472 19.2718 25.8472 21.4914 24.3157H5.7981C8.01766 25.8472 10.7239 26.7472 13.6448 26.7472Z" fill="#D80027"/>
<path d="M0.513718 9.72557C0.287605 10.5092 0.133398 11.3222 0.0566406 12.1571H13.6456V-0.000488281C7.39952 -0.000488281 2.13372 4.11243 0.513718 9.72557Z" fill="#0052B4"/>
<path d="M8.12329 3.48877L9.0068 6.15377H11.8663L9.55305 7.80099L10.4365 10.4661L8.12329 8.81903L5.80997 10.4661L6.69364 7.80099L4.38037 6.15377H7.23973L8.12329 3.48877Z" fill="#F0F0F0"/>
</g>
<defs>
<clipPath id="clip0_1047_117">
<rect width="27.2914" height="26.7466" fill="white"/>
</clipPath>
</defs>
</svg>
