<svg width="33" height="33" viewBox="0 0 33 33" fill="none" xmlns="http://www.w3.org/2000/svg">
<path d="M17.795 14.6238C18.1094 14.9371 18.3238 15.3366 18.4109 15.7718C18.4981 16.207 18.4541 16.6583 18.2846 17.0685C18.1151 17.4787 17.8277 17.8294 17.4588 18.0761C17.0898 18.3229 16.656 18.4546 16.2122 18.4546C15.7683 18.4546 15.3345 18.3229 14.9655 18.0761C14.5966 17.8294 14.3092 17.4787 14.1397 17.0685C13.9702 16.6583 13.9262 16.207 14.0134 15.7718C14.1005 15.3366 14.3149 14.9371 14.6293 14.6238C15.0496 14.2049 15.6188 13.9697 16.2122 13.9697C16.8055 13.9697 17.3747 14.2049 17.795 14.6238Z" fill="white"/>
<path d="M22.4411 5H9.98316C8.66155 5 7.39406 5.52501 6.45953 6.45953C5.52501 7.39406 5 8.66155 5 9.98316V22.4411C5 23.7627 5.52501 25.0302 6.45953 25.9647C7.39406 26.8992 8.66155 27.4242 9.98316 27.4242H22.4411C23.7627 27.4242 25.0302 26.8992 25.9647 25.9647C26.8992 25.0302 27.4242 23.7627 27.4242 22.4411V9.98316C27.4242 8.66155 26.8992 7.39406 25.9647 6.45953C25.0302 5.52501 23.7627 5 22.4411 5ZM22.1047 12.4747L20.535 19.0899C20.4558 19.4295 20.2831 19.7401 20.0366 19.9867C19.79 20.2333 19.4793 20.406 19.1397 20.4852L12.4747 22.1047C12.1786 22.1672 11.8715 22.1548 11.5813 22.0686C11.2912 21.9824 11.0271 21.8252 10.8131 21.6112C10.599 21.3971 10.4418 21.1331 10.3556 20.8429C10.2694 20.5527 10.257 20.2457 10.3195 19.9495L11.8892 13.2845C11.9718 12.9478 12.1458 12.6405 12.392 12.3965C12.6382 12.1525 12.9471 11.9812 13.2845 11.9017L19.9495 10.332C20.2444 10.2702 20.5501 10.2827 20.839 10.3683C21.1279 10.4539 21.3911 10.6099 21.6047 10.8224C21.8184 11.0348 21.976 11.297 22.0633 11.5855C22.1505 11.8739 22.1648 12.1795 22.1047 12.4747Z" fill="white"/>
</svg>
