<svg width="36" height="33" viewBox="0 0 36 33" fill="none" xmlns="http://www.w3.org/2000/svg">
<path d="M30.574 13.2682L19.343 5.43802C18.9523 5.15296 18.4865 5 18.0091 5C17.5317 5 17.0659 5.15296 16.6752 5.43802L5.44419 13.2682C5.22309 13.4226 5.07007 13.6619 5.01879 13.9335C4.96751 14.2051 5.02217 14.4867 5.17075 14.7164C5.31933 14.9461 5.54966 15.1051 5.81106 15.1584C6.07246 15.2117 6.34353 15.1549 6.56463 15.0005L8.00519 14.0027V23.8424C8.00519 24.9451 8.42679 26.0026 9.17722 26.7823C9.92766 27.562 10.9455 28 12.0068 28H24.0114C25.0727 28 26.0905 27.562 26.841 26.7823C27.5914 26.0026 28.013 24.9451 28.013 23.8424V14.0027L29.4536 15.0005C29.6248 15.0985 29.8184 15.1464 30.0138 15.1391C30.1775 15.1413 30.3392 15.1005 30.4837 15.0206C30.6283 14.9406 30.7511 14.8241 30.8408 14.6818C30.9807 14.456 31.031 14.1827 30.9813 13.9192C30.9316 13.6557 30.7856 13.4224 30.574 13.2682ZM20.6768 24.8402H15.3414C15.0761 24.8402 14.8216 24.7307 14.634 24.5358C14.4464 24.3409 14.341 24.0765 14.341 23.8008C14.341 23.5251 14.4464 23.2608 14.634 23.0658C14.8216 22.8709 15.0761 22.7614 15.3414 22.7614H20.6768C20.9421 22.7614 21.1966 22.8709 21.3842 23.0658C21.5718 23.2608 21.6772 23.5251 21.6772 23.8008C21.6772 24.0765 21.5718 24.3409 21.3842 24.5358C21.1966 24.7307 20.9421 24.8402 20.6768 24.8402Z" fill="white"/>
</svg>
