<svg width="33" height="33" viewBox="0 0 33 33" fill="none" xmlns="http://www.w3.org/2000/svg">
<path d="M16.2121 5C13.9946 5 11.8268 5.65758 9.983 6.88958C8.13918 8.12159 6.7021 9.87268 5.85348 11.9214C5.00486 13.9702 4.78282 16.2246 5.21544 18.3995C5.64806 20.5744 6.71592 22.5722 8.28396 24.1403C9.852 25.7083 11.8498 26.7762 14.0247 27.2088C16.1997 27.6414 18.4541 27.4194 20.5028 26.5708C22.5516 25.7221 24.3027 24.2851 25.5347 22.4412C26.7667 20.5974 27.4242 18.4297 27.4242 16.2121C27.4212 13.2394 26.2389 10.3893 24.1369 8.28732C22.0349 6.1853 19.1848 5.00304 16.2121 5ZM23.1119 22.7324C22.3099 21.6592 21.2687 20.7878 20.0709 20.1876C18.8732 19.5874 17.5519 19.2748 16.2121 19.2748C14.8724 19.2748 13.5511 19.5874 12.3533 20.1876C11.1555 20.7878 10.1143 21.6592 9.31236 22.7324C8.04055 21.3848 7.19123 19.6942 6.86926 17.8693C6.54729 16.0445 6.76675 14.1654 7.50057 12.4638C8.23438 10.7623 9.45042 9.31296 10.9985 8.29466C12.5467 7.27636 14.3591 6.73371 16.2121 6.73371C18.0651 6.73371 19.8776 7.27636 21.4257 8.29466C22.9738 9.31296 24.1899 10.7623 24.9237 12.4638C25.6575 14.1654 25.877 16.0445 25.555 17.8693C25.233 19.6942 24.3837 21.3848 23.1119 22.7324Z" fill="white"/>
<path d="M16.2121 9.48488C15.5912 9.48488 14.9843 9.669 14.468 10.014C13.9517 10.3589 13.5493 10.8492 13.3117 11.4229C13.0741 11.9965 13.0119 12.6277 13.1331 13.2367C13.2542 13.8457 13.5532 14.4051 13.9923 14.8441C14.4313 15.2832 14.9907 15.5822 15.5997 15.7033C16.2087 15.8245 16.8399 15.7623 17.4135 15.5247C17.9872 15.2871 18.4775 14.8847 18.8224 14.3684C19.1674 13.8521 19.3515 13.2452 19.3515 12.6243C19.353 12.2116 19.2728 11.8027 19.1156 11.4211C18.9583 11.0396 18.7271 10.6929 18.4353 10.4011C18.1435 10.1093 17.7968 9.87809 17.4153 9.72085C17.0337 9.5636 16.6248 9.48341 16.2121 9.48488Z" fill="white"/>
</svg>
