<svg width="34" height="34" viewBox="0 0 34 34" fill="none" xmlns="http://www.w3.org/2000/svg">
<path d="M28.6599 26.971L24.5858 22.9138C26.3537 20.7197 27.2128 17.9316 26.9863 15.1233C26.7598 12.3151 25.4649 9.70055 23.3683 7.81806C21.2716 5.93557 18.5328 4.92841 15.7157 5.00396C12.8986 5.07952 10.2177 6.23203 8.22504 8.2242C6.23235 10.2164 5.07954 12.8965 5.00396 15.7129C4.92839 18.5292 5.93581 21.2673 7.8188 23.3635C9.70178 25.4596 12.317 26.7541 15.126 26.9806C17.9349 27.207 20.7239 26.3481 22.9185 24.5807L26.9768 28.6537C27.2007 28.8755 27.5031 29 27.8183 29C28.1336 29 28.436 28.8755 28.6599 28.6537C28.8781 28.4279 29 28.1263 29 27.8124C29 27.4985 28.8781 27.1968 28.6599 26.971ZM21.141 15.9629C21.1368 14.6087 20.5969 13.3112 19.639 12.3536C18.6812 11.396 17.3833 10.8562 16.0287 10.852C15.7171 10.848 15.4194 10.7224 15.199 10.5021C14.9787 10.2818 14.8531 9.98415 14.849 9.67261C14.8469 9.51714 14.8759 9.36282 14.9345 9.21877C14.993 9.07471 15.0798 8.94385 15.1898 8.83391C15.2998 8.72396 15.4307 8.63716 15.5748 8.57864C15.7189 8.52012 15.8732 8.49106 16.0287 8.49317C18.0091 8.49733 19.9071 9.28565 21.3075 10.6856C22.7078 12.0856 23.4963 13.9831 23.5005 15.9629C23.5005 16.2758 23.3762 16.5757 23.1549 16.7969C22.9337 17.0181 22.6336 17.1424 22.3207 17.1424C22.0078 17.1424 21.7078 17.0181 21.4865 16.7969C21.2653 16.5757 21.141 16.2758 21.141 15.9629Z" fill="white"/>
</svg>
